<?xml version="1.0" encoding="UTF-8"?>
<svg version="1.1" xmlns="http://www.w3.org/2000/svg" width="1000" height="1000">
<path d="M0 0 C5.03136464 2.21087187 8.41020112 3.23804031 13.90771484 1.60327148 C15.79984899 0.34730798 15.79984899 0.34730798 17.28271484 -1.39672852 C34.12921866 -17.20252167 59.83753833 -22.14251135 82.11083984 -21.65063477 C110.53832283 -20.48085207 133.04733056 -9.95266234 152.42285156 10.9362793 C176.9263904 38.4453492 189.55592412 75.17031394 200.90771484 109.60327148 C201.12129639 110.25026001 201.33487793 110.89724854 201.55493164 111.56384277 C231.85557949 203.77521988 243.3595318 298.30000366 252.90771484 477.60327148 C252.94538971 478.8213147 252.94538971 478.8213147 252.98382568 480.06396484 C253.75546102 505.62160557 251.75608874 526.81786477 233.90771484 546.60327148 C233.30443359 547.29936523 232.70115234 547.99545898 232.07958984 548.71264648 C219.72481345 562.10563938 200.85117391 569.73101537 182.87255859 570.92358398 C174.8804535 571.23330488 167.99456203 570.24969031 160.28271484 568.16577148 C154.85925872 566.61720275 154.85925872 566.61720275 149.46630859 567.61499023 C147.59211551 569.48079767 146.28863135 571.35168914 144.90771484 573.60327148 C143.93192411 574.79026076 142.93030146 575.95635051 141.90771484 577.10327148 C141.33537109 577.76456055 140.76302734 578.42584961 140.17333984 579.10717773 C132.17069602 587.92388361 123.71620076 596.27410642 114.36083984 603.64624023 C112.07587244 605.46912028 109.93112286 607.3729641 107.78271484 609.35327148 C100.86192109 615.55981962 93.36230347 621.06154605 85.90771484 626.60327148 C84.90224609 627.35398926 84.90224609 627.35398926 83.87646484 628.11987305 C57.61620828 647.59362481 28.09243485 664.07357729 -2.09228516 676.60327148 C-3.26049805 677.09150391 -4.42871094 677.57973633 -5.63232422 678.08276367 C-51.88298041 697.31761414 -100.24169316 709.32772324 -150.09228516 714.60327148 C-151.00300781 714.70768555 -151.91373047 714.81209961 -152.85205078 714.91967773 C-219.82922214 722.41960196 -290.03492891 714.0556202 -354.09228516 693.60327148 C-355.58816162 693.13800049 -355.58816162 693.13800049 -357.11425781 692.66333008 C-390.76558153 682.18849005 -422.74706929 667.45958287 -453.09228516 649.60327148 C-453.92695313 649.11294434 -454.76162109 648.62261719 -455.62158203 648.11743164 C-465.81729402 642.0932529 -475.58235119 635.65647251 -485.09228516 628.60327148 C-486.07197266 627.8878418 -487.05166016 627.17241211 -488.06103516 626.43530273 C-499.35108216 618.10434063 -510.36615796 609.30981409 -520.68603516 599.79858398 C-522.72026103 597.94268311 -524.78500206 596.13995962 -526.86962891 594.34155273 C-531.13765635 590.61560754 -535.16141985 586.68237655 -539.15478516 582.66577148 C-539.82316406 582.00125977 -540.49154297 581.33674805 -541.18017578 580.65209961 C-545.68769665 576.13581777 -549.94925375 571.45552137 -554.09228516 566.60327148 C-555.26662109 566.89202148 -556.44095703 567.18077148 -557.65087891 567.47827148 C-580.38754369 572.82401657 -601.20020926 571.78437497 -621.71728516 559.35327148 C-639.10793401 547.73451902 -650.84598687 531.19323585 -655.09228516 510.60327148 C-656.36117259 503.79066671 -656.25070408 497.01620662 -656.22900391 490.10327148 C-656.22781744 489.44844788 -656.22663097 488.79362427 -656.22540855 488.11895752 C-656.19121248 473.62364157 -655.67972023 459.15514891 -655.00173569 444.6760788 C-654.90244967 442.55333875 -654.80509726 440.4305156 -654.70791626 438.30767822 C-650.92652262 356.29218845 -644.89943424 273.94989111 -548.09228516 3.60327148 C-547.33302734 2.84401367 -546.57376953 2.08475586 -545.79150391 1.30249023 C-525.71555375 -17.59899849 -499.19587379 -22.32812348 -472.59326172 -21.52856445 C-452.19727671 -20.45341491 -429.6610729 -11.96551626 -415.09228516 2.60327148 C-410.06859512 3.08171815 -406.52367057 1.73889944 -402.09228516 -0.39672852 C-357.0124246 -20.96771407 -306.27072521 -30.80926371 -257.15478516 -35.70922852 C-255.93677216 -35.83133194 -255.93677216 -35.83133194 -254.69415283 -35.9559021 C-179.09317119 -43.40449723 -101.13686074 -35.28940071 0 0 Z " fill="#5271FE" transform="translate(701.09228515625,170.396728515625)"/>
<path d="M0 0 C1.81792796 -0.00761181 1.81792796 -0.00761181 3.67258173 -0.0153774 C5.01937898 -0.01597906 6.36617628 -0.01647815 7.71297359 -0.01688576 C9.14244119 -0.02090143 10.57190766 -0.02533983 12.00137275 -0.03016531 C15.93480214 -0.04212614 19.86821927 -0.04777819 23.80166328 -0.05234647 C28.0426313 -0.05830488 32.28358467 -0.06991458 36.52454281 -0.08063698 C46.77296202 -0.10516244 57.02138608 -0.11979192 67.26982561 -0.13269705 C70.16661074 -0.13641002 73.06339539 -0.1403832 75.96018004 -0.14444971 C93.96223583 -0.16969625 111.96429241 -0.19174199 129.966362 -0.20417786 C134.13669557 -0.20710742 138.30702912 -0.21006909 142.47736263 -0.21308327 C144.03208061 -0.21420234 144.03208061 -0.21420234 145.61820703 -0.21534403 C162.38257196 -0.2279788 179.14683036 -0.26117564 195.91114558 -0.3028851 C213.1384037 -0.34539324 230.36560745 -0.36888346 247.59291786 -0.37409842 C257.25882862 -0.37750337 266.9245732 -0.38914931 276.59043217 -0.42220116 C284.82874111 -0.45032561 293.06684982 -0.46114719 301.30520303 -0.4500057 C305.50207197 -0.44484977 309.69852245 -0.44750337 313.89532948 -0.47247124 C330.53381616 -0.56608053 346.24319277 -0.57066737 362.11041927 5.13701439 C363.48972193 5.60881498 364.86935178 6.07966017 366.24931335 6.54953003 C393.69405217 16.23952903 409.66652679 38.20937572 425.08698177 61.56670189 C428.87786321 67.30559787 432.71656107 73.01119428 436.57135677 78.70732689 C437.43936665 79.99032677 437.43936665 79.99032677 438.32491207 81.29924583 C440.76858727 84.91079056 443.21249222 88.52217962 445.65689754 92.13323021 C452.86307443 102.78531914 460.0117283 113.47074209 467.04401302 124.23857689 C467.69204388 125.2292617 468.34007473 126.21994652 469.00774288 127.24065208 C472.11807905 131.99733489 475.21912699 136.75961734 478.30451107 141.5325222 C490.22601474 159.86913839 501.63832701 173.94074721 522.11041927 183.13701439 C520.77173345 186.08745533 519.27769844 188.25488267 517.05573177 190.60576439 C516.44697201 191.25343773 515.83821224 191.90111107 515.21100521 192.56841087 C514.55906185 193.25105003 513.90711849 193.93368919 513.23541927 194.63701439 C512.56285091 195.34607933 511.89028255 196.05514427 511.19733334 196.78569603 C509.17544841 198.90972777 507.14486797 201.02501944 505.11041927 203.13701439 C504.54871029 203.72208763 503.9870013 204.30716087 503.40827084 204.90996361 C497.48241466 211.05495492 491.3637768 216.75668785 484.66901302 222.07451439 C482.35594229 223.9390966 480.16952803 225.87478367 477.98541927 227.88701439 C471.06462552 234.09356253 463.5650079 239.59528895 456.11041927 245.13701439 C455.44010677 245.6374929 454.76979427 246.13797142 454.07916927 246.65361595 C427.81891271 266.12736772 398.29513928 282.6073202 368.11041927 295.13701439 C366.94220638 295.62524681 365.77399349 296.11347923 364.57038021 296.61650658 C318.31972402 315.85135705 269.96101127 327.86146614 220.11041927 333.13701439 C219.19969662 333.24142845 218.28897396 333.34584251 217.35065365 333.45342064 C150.37348229 340.95334486 80.16777552 332.5893631 16.11041927 312.13701439 C14.61454281 311.67174339 14.61454281 311.67174339 13.08844662 311.19707298 C-20.5628771 300.72223296 -52.54436486 285.99332577 -82.88958073 268.13701439 C-83.7242487 267.64668724 -84.55891666 267.15636009 -85.4188776 266.65117455 C-95.61458959 260.6269958 -105.37964676 254.19021542 -114.88958073 247.13701439 C-116.35911198 246.06386986 -116.35911198 246.06386986 -117.85833073 244.96904564 C-129.14837773 236.63808353 -140.16345353 227.84355699 -150.48333073 218.33232689 C-152.5175566 216.47642601 -154.58229763 214.67370253 -156.66692448 212.87529564 C-160.93495192 209.14935045 -164.95871542 205.21611945 -168.95208073 201.19951439 C-169.62045963 200.53500267 -170.28883854 199.87049095 -170.97747135 199.18584251 C-174.36484702 195.79188303 -177.69803954 192.3463558 -180.94817448 188.82060814 C-181.53784 188.18566429 -182.12750553 187.55072044 -182.73503971 186.89653587 C-183.11603825 186.31589378 -183.49703678 185.73525169 -183.88958073 185.13701439 C-182.88958073 182.13701439 -182.88958073 182.13701439 -180.55364323 180.84795189 C-179.5507526 180.40709251 -178.54786198 179.96623314 -177.51458073 179.51201439 C-161.50632323 171.82195966 -152.36261001 158.70983665 -142.91011906 144.32771873 C-140.03663625 139.95655672 -137.1428625 135.59882764 -134.25286198 131.23857689 C-133.64987782 130.32759743 -133.04689365 129.41661797 -132.42563725 128.47803307 C-124.63316916 116.71262033 -116.72852416 105.02295223 -108.82341862 93.33305931 C-107.6110409 91.53988479 -106.39871997 89.74667188 -105.18645573 87.95342064 C-104.2876292 86.62406738 -104.2876292 86.62406738 -103.37064457 85.26785851 C-99.65105975 79.76123046 -95.95197129 74.24141537 -92.26825809 68.7107296 C-89.83274069 65.05510967 -87.39066605 61.40389288 -84.94814396 57.75295067 C-83.80320994 56.03762079 -82.66143195 54.32017924 -81.52315617 52.60042381 C-69.34675318 34.208224 -56.58907701 20.55824962 -36.88958073 10.13701439 C-35.97305729 9.65103783 -35.05653385 9.16506126 -34.11223698 8.66435814 C-26.37509184 4.859777 -18.2477447 3.03786773 -9.88958073 1.13701439 C-9.27878526 0.95840476 -8.6679898 0.77979514 -8.03868538 0.5957731 C-5.32052729 0.01554138 -2.78045129 0.00618131 0 0 Z " fill="#FEBC59" transform="translate(330.88958072662354,551.8629856109619)"/>
<path d="M0 0 C51.15 0 102.3 0 155 0 C155 15.51 155 31.02 155 47 C103.85 47 52.7 47 0 47 C0 31.49 0 15.98 0 0 Z " fill="#FEBC59" transform="translate(422,377)"/>
<path d="M0 0 C51.15 0 102.3 0 155 0 C155 15.18 155 30.36 155 46 C103.85 46 52.7 46 0 46 C0 30.82 0 15.64 0 0 Z " fill="#FEBC59" transform="translate(422,288)"/>
<path d="M0 0 C1.10794922 -0.01836914 1.10794922 -0.01836914 2.23828125 -0.03710938 C12.82477657 -0.06511598 23.26571349 4.1367909 31.08984375 11.33203125 C40.22388184 21.54066206 43.48817552 31.87351424 43.03125 45.3125 C42.16881267 57.19496985 36.58966375 66.15897716 28.09375 74.328125 C17.53100025 82.70790646 5.88367172 84.33471831 -7.25 83.1875 C-18.97995564 80.11733555 -29.0346378 72.59784612 -35.25 62.1875 C-40.54040164 51.11114012 -42.17915342 40.78467806 -38.625 28.9375 C-33.87644773 16.3629365 -25.56139694 7.78569381 -13.4140625 2.09765625 C-8.86500672 0.18442521 -4.86525807 0.00415834 0 0 Z " fill="#FDBC5A" transform="translate(682.25,332.8125)"/>
<path d="M0 0 C9.13895708 5.84950461 15.5449607 13.47092976 18.62890625 24.05078125 C21.31261054 37.31916542 19.82637769 48.45428575 12.4609375 59.93359375 C5.65861773 69.49230375 -3.84016881 74.52167993 -15.1875 77.25 C-27.15668314 78.50366306 -36.64101839 76.33123235 -46.5 69.4375 C-55.14464454 62.37113081 -61.49991063 53.51207599 -63.1875 42.25 C-64.11981853 28.57001848 -61.16215819 18.0775749 -52.62890625 7.27734375 C-38.80968228 -7.801186 -17.34487557 -9.74021541 0 0 Z " fill="#FDBC5A" transform="translate(790.1875,250.75)"/>
<path d="M0 0 C8.10403772 6.24815122 12.79015456 14.37046368 16 24 C17.41578856 37.9051942 15.75981431 50.05039568 6.7265625 61.19140625 C-1.29291163 69.59189612 -10.56794387 75.01342246 -22.24438477 75.29248047 C-30.27923649 75.3600487 -36.87931947 75.1387349 -44 71 C-45.16402344 70.34644531 -45.16402344 70.34644531 -46.3515625 69.6796875 C-56.84518771 63.25716772 -62.16182214 54.51453359 -66 43 C-67.2590752 30.63396903 -66.64325417 19.33725089 -58.83984375 9.19140625 C-53.7208074 3.30323255 -48.63562004 -1.51391995 -41.4375 -4.6875 C-40.50808594 -5.10386719 -39.57867188 -5.52023437 -38.62109375 -5.94921875 C-25.32386697 -11.27999968 -11.68422848 -7.1583218 0 0 Z " fill="#FDBC5A" transform="translate(791,431)"/>
<path d="M0 0 C9.61298908 6.63665977 17.00176836 16.02003432 19.53125 27.515625 C21.28472172 39.85568226 18.28641828 50.19874649 11.84375 60.71484375 C5.59559878 68.81888147 -2.52671368 73.50499831 -12.15625 76.71484375 C-23.05690958 77.76502925 -33.78678719 77.96115229 -43.15625 71.71484375 C-43.96320312 71.18375 -44.77015625 70.65265625 -45.6015625 70.10546875 C-54.47687086 63.71993336 -60.3932004 55.20780455 -62.90625 44.52734375 C-62.98875 43.26921875 -63.07125 42.01109375 -63.15625 40.71484375 C-63.23101563 39.68359375 -63.30578125 38.65234375 -63.3828125 37.58984375 C-63.84525357 26.4912581 -61.0040965 17.26015403 -53.94140625 8.58984375 C-39.58918337 -6.48470107 -18.44195201 -10.99167067 0 0 Z " fill="#FDBC59" transform="translate(878.15625,341.28515625)"/>
<path d="M0 0 C16.93928714 -0.32087047 16.93928714 -0.32087047 24.18554688 -0.390625 C29.12171614 -0.43836789 34.05669321 -0.49470928 38.99194336 -0.60351562 C42.97319477 -0.69073547 46.95316746 -0.73833335 50.93530083 -0.75901794 C52.45086228 -0.77374851 53.96635721 -0.80251695 55.48137093 -0.84584045 C67.34861269 -1.17155889 67.34861269 -1.17155889 71.40718079 1.70774841 C73.17308367 3.71912547 74.56418143 5.74725361 76 8 C77.14961654 9.22682501 78.32513137 10.43036982 79.53515625 11.59765625 C80.11716797 12.17193359 80.69917969 12.74621094 81.29882812 13.33789062 C81.88083984 13.90701172 82.46285156 14.47613281 83.0625 15.0625 C87.62844524 19.5279844 91.89923649 24.10030539 96 29 C94.72494758 31.80428566 93.42022876 33.81604371 91.20703125 35.953125 C90.66240234 36.48615234 90.11777344 37.01917969 89.55664062 37.56835938 C88.98107422 38.12330078 88.40550781 38.67824219 87.8125 39.25 C83.54478987 43.43338655 79.40043913 47.62990974 75.5625 52.21875 C74.7890625 53.10046875 74.7890625 53.10046875 74 54 C73.28511917 54.85003098 72.57023834 55.70006195 71.83369446 56.57585144 C68.31219194 59.5884011 66.67665413 59.60947581 62.09838867 59.56762695 C61.42466217 59.56835709 60.75093567 59.56908722 60.05679321 59.56983948 C57.84301556 59.56637235 55.63137597 59.52755972 53.41796875 59.48828125 C51.87812957 59.47894984 50.3382755 59.47183527 48.79841614 59.46684265 C44.7554896 59.44779819 40.71346848 59.39872094 36.67089844 59.34332275 C31.81518514 59.28305596 26.95916822 59.26020172 22.10318756 59.23105621 C14.73482964 59.18265265 7.36845632 59.08682392 0 59 C0 39.53 0 20.06 0 0 Z " fill="#FCBB5B" transform="translate(111,346)"/>
<path d="M0 0 C19.47 0 38.94 0 59 0 C59.32087047 16.93928714 59.32087047 16.93928714 59.390625 24.18554688 C59.43836789 29.12171614 59.49470928 34.05669321 59.60351562 38.99194336 C59.69073547 42.97319477 59.73833335 46.95316746 59.75901794 50.93530083 C59.77374851 52.45086228 59.80251695 53.96635721 59.84584045 55.48137093 C60.17145694 67.34489824 60.17145694 67.34489824 57.30886841 71.389328 C55.29484127 73.15512668 53.26737499 74.5816933 51 76 C49.62333108 77.32732331 48.26148711 78.67062978 46.9296875 80.04296875 C46.26066406 80.72423828 45.59164062 81.40550781 44.90234375 82.10742188 C43.54111665 83.50405662 42.18176543 84.90252194 40.82421875 86.30273438 C37.10474779 90.08335718 33.54721353 93.25892269 29 96 C28.5875 95.57589844 28.175 95.15179688 27.75 94.71484375 C24.70112362 91.61832867 21.62238824 88.62972143 18.3125 85.8125 C13.98990316 82.10135104 10.01536422 78.07120183 6.03637695 73.99926758 C3.29440412 71.13945445 3.29440412 71.13945445 0 69 C0 46.23 0 23.46 0 0 Z " fill="#FDBC5A" transform="translate(202,244)"/>
<path d="M0 0 C1.50735648 0.02244054 3.01480175 0.03949418 4.52227783 0.05145264 C8.45050722 0.09682249 12.37323209 0.21424816 16.29931641 0.34790039 C21.03075379 0.49350526 25.76405464 0.54755795 30.49710083 0.61734009 C37.65291232 0.73290638 44.79670083 0.96298478 51.953125 1.171875 C51.953125 20.641875 51.953125 40.111875 51.953125 60.171875 C35.66449188 60.85372476 35.66449188 60.85372476 28.61132812 61.00195312 C23.83364925 61.10284363 19.06160726 61.22083589 14.28833008 61.4543457 C-13.47311083 62.77682503 -13.47311083 62.77682503 -21.78564453 56.59326172 C-25.49214733 53.20368454 -28.56586049 49.50014275 -31.44998169 45.39694214 C-33.61137017 42.38532298 -36.04654678 39.66201089 -38.51475525 36.90077209 C-40.44397308 34.72377574 -42.25639005 32.46369574 -44.046875 30.171875 C-43.47839844 29.615 -42.90992188 29.058125 -42.32421875 28.484375 C-38.67053858 24.87339226 -35.06385558 21.27398707 -31.734375 17.359375 C-30.9346225 16.45702118 -30.9346225 16.45702118 -30.11871338 15.53643799 C-28.58279822 13.7835174 -27.09170064 11.99110948 -25.62591553 10.17913818 C-18.0094682 1.25479067 -11.61429506 -0.51504176 0 0 Z " fill="#FDBC5A" transform="translate(300.046875,344.828125)"/>
<path d="M0 0 C1.71280901 1.61920995 3.37251538 3.29505151 5 5 C5.77746582 5.78270264 6.55493164 6.56540527 7.35595703 7.37182617 C8.14856934 8.17080322 8.94118164 8.96978027 9.7578125 9.79296875 C11.54680769 11.5912128 13.33587212 13.38938797 15.125 15.1875 C16.48431641 16.55938477 16.48431641 16.55938477 17.87109375 17.95898438 C18.74121094 18.83232422 19.61132812 19.70566406 20.5078125 20.60546875 C21.29816895 21.40106201 22.08852539 22.19665527 22.90283203 23.01635742 C25.03625912 25.14606345 25.03625912 25.14606345 28 27 C28.36076355 29.86001587 28.36076355 29.86001587 28.34057617 33.56103516 C28.34123329 34.57096779 28.34123329 34.57096779 28.34190369 35.6013031 C28.33981056 37.83084938 28.3164562 40.05964731 28.29296875 42.2890625 C28.28737463 43.83319691 28.28310366 45.37733664 28.28010559 46.92147827 C28.26864226 50.98883727 28.23916262 55.05587571 28.20599365 59.12310791 C28.16993399 64.00139745 28.15613867 68.87979408 28.13863373 73.75817871 C28.10952578 81.1723422 28.05204975 88.5858021 28 96 C8.86 96 -10.28 96 -30 96 C-30.28076167 79.06071286 -30.28076167 79.06071286 -30.34179688 71.81445312 C-30.38357051 66.87844877 -30.43286964 61.94335726 -30.52807617 57.00805664 C-30.60439295 53.02683616 -30.64604276 49.04659491 -30.6641407 45.06469917 C-30.67702954 43.54918571 -30.70220032 42.03372314 -30.7401104 40.51862907 C-31.02444973 28.67904804 -31.02444973 28.67904804 -28.52249146 24.57839966 C-26.7726489 22.79951359 -25.050831 21.41233065 -23 20 C-21.78278836 18.96872181 -20.57340055 17.92807882 -19.375 16.875 C-18.72015625 16.31425781 -18.0653125 15.75351562 -17.390625 15.17578125 C-13.56917766 11.69776464 -9.97995882 7.98436068 -6.39208984 4.26708984 C-2.21485975 0 -2.21485975 0 0 0 Z " fill="#FEBC59" transform="translate(233,411)"/>
<path d="M0 0 C2.375 0.8125 2.375 0.8125 4.375 2.8125 C4.23615776 6.32185742 3.83818832 8.25243569 1.58203125 10.98046875 C0.79183594 11.64691406 0.00164062 12.31335938 -0.8125 13 C-1.72 13.76957031 -2.6275 14.53914062 -3.5625 15.33203125 C-5.0784375 16.55986328 -5.0784375 16.55986328 -6.625 17.8125 C-7.41777344 18.45711182 -7.41777344 18.45711182 -8.2265625 19.11474609 C-12.30632492 22.41746846 -16.45220581 25.62849342 -20.625 28.8125 C-21.21941895 29.26915039 -21.81383789 29.72580078 -22.42626953 30.19628906 C-31.71471922 37.30085482 -41.36617208 43.59892798 -51.44335938 49.52783203 C-52.83636421 50.3481086 -54.22605845 51.17405114 -55.61132812 52.00732422 C-110.50213481 85.01218106 -177.72359726 95.09380256 -239.97558594 80.58691406 C-283.58295375 69.64997692 -322.70588355 46.89780198 -356.95410156 18.20458984 C-358.41122716 16.99060239 -359.887655 15.79985789 -361.3671875 14.61328125 C-362.09164063 14.01902344 -362.81609375 13.42476562 -363.5625 12.8125 C-364.14902344 12.338125 -364.73554688 11.86375 -365.33984375 11.375 C-367.10206081 9.23248686 -367.42339101 7.55781397 -367.625 4.8125 C-366.965 3.8225 -366.305 2.8325 -365.625 1.8125 C-362.05553914 1.27782348 -360.23744217 1.42814644 -357.16015625 3.359375 C-355.93619141 4.44992187 -355.93619141 4.44992187 -354.6875 5.5625 C-353.72714844 6.38878906 -352.76679688 7.21507812 -351.77734375 8.06640625 C-351.2654248 8.51387207 -350.75350586 8.96133789 -350.22607422 9.42236328 C-332.35667306 24.9375158 -312.44325195 37.63612666 -291.625 48.8125 C-290.88733398 49.21275391 -290.14966797 49.61300781 -289.38964844 50.02539062 C-268.15553711 61.36183751 -243.40609141 69.28652088 -219.625 72.8125 C-218.74827637 72.95623047 -217.87155273 73.09996094 -216.96826172 73.24804688 C-154.76806764 83.41297426 -89.64438991 64.78187984 -38.73681641 28.34814453 C-28.58585575 20.96669453 -18.75934331 13.26011824 -9.26171875 5.0546875 C-3.06054127 -0.21861009 -3.06054127 -0.21861009 0 0 Z " fill="#5672FA" transform="translate(696.625,608.1875)"/>
<path d="M0 0 C1.6509209 -0.00202408 3.30184093 -0.0049383 4.95275879 -0.00869751 C8.40234949 -0.01310515 11.85170617 -0.00674038 15.30126953 0.00732422 C19.70598229 0.02441528 24.1101465 0.01456569 28.51483917 -0.00339317 C31.92079748 -0.01427337 35.32662738 -0.01076533 38.73258972 -0.0030098 C40.35597296 -0.00101948 41.97936816 -0.00342567 43.60273743 -0.01044846 C61.83380022 -0.07202352 61.83380022 -0.07202352 68.1171875 5.046875 C68.78621094 5.90152344 68.78621094 5.90152344 69.46875 6.7734375 C70.16097656 7.62035156 70.16097656 7.62035156 70.8671875 8.484375 C73.3771198 12.40114834 74.34592446 15.84621915 74.2890625 20.48046875 C74.28261719 21.41181641 74.27617188 22.34316406 74.26953125 23.30273438 C74.24439453 24.74229492 74.24439453 24.74229492 74.21875 26.2109375 C74.20972656 27.18998047 74.20070313 28.16902344 74.19140625 29.17773438 C74.16792182 31.58488811 74.1350784 33.99153493 74.09375 36.3984375 C70.16527648 35.14086448 66.42237931 33.7008341 62.65625 32.0234375 C34.90449786 20.38006624 3.38200798 20.09246926 -24.76953125 30.3125 C-27.49295096 31.25535265 -30.0704641 31.91959936 -32.90625 32.3984375 C-32.98797936 29.8769354 -33.04708373 27.35813833 -33.09375 24.8359375 C-33.13145508 23.77922852 -33.13145508 23.77922852 -33.16992188 22.70117188 C-33.26184323 16.05219392 -31.46230999 11.71029805 -27.71875 6.1484375 C-20.1071583 -1.29400772 -9.90708244 -0.04285861 0 0 Z " fill="#5271FF" transform="translate(762.90625,112.6015625)"/>
<path d="M0 0 C1.6509209 -0.00202408 3.30184093 -0.0049383 4.95275879 -0.00869751 C8.40234949 -0.01310515 11.85170617 -0.00674038 15.30126953 0.00732422 C19.70598229 0.02441528 24.1101465 0.01456569 28.51483917 -0.00339317 C31.92079748 -0.01427337 35.32662738 -0.01076533 38.73258972 -0.0030098 C40.35597296 -0.00101948 41.97936816 -0.00342567 43.60273743 -0.01044846 C61.83380022 -0.07202352 61.83380022 -0.07202352 68.1171875 5.046875 C68.78621094 5.90152344 68.78621094 5.90152344 69.46875 6.7734375 C70.16097656 7.62035156 70.16097656 7.62035156 70.8671875 8.484375 C74.22128257 13.71847241 74.3503703 18.17159062 74.21875 24.2109375 C74.20972656 24.99919922 74.20070313 25.78746094 74.19140625 26.59960938 C74.16797504 28.53268416 74.13210838 30.4656013 74.09375 32.3984375 C69.98351648 31.70309724 66.26128907 30.43477799 62.34375 29.0234375 C35.03635092 19.74066884 3.63656023 20.89078482 -22.90625 32.3984375 C-24.19376324 33.10849144 -25.47052352 33.83848074 -26.734375 34.58984375 C-29.90625 36.3984375 -29.90625 36.3984375 -32.90625 36.3984375 C-32.99422281 33.21111496 -33.04696341 30.02410962 -33.09375 26.8359375 C-33.11888672 25.94068359 -33.14402344 25.04542969 -33.16992188 24.12304688 C-33.2508646 16.7572593 -31.87412952 12.32214422 -27.71875 6.1484375 C-20.1071583 -1.29400772 -9.90708244 -0.04285861 0 0 Z " fill="#5271FF" transform="translate(194.90625,112.6015625)"/>
<path d="M0 0 C5.56440885 3.21900103 9.95906973 8.01795774 12.63671875 13.87890625 C14.49685928 20.85164859 14.37458898 28.7705605 11.2890625 35.32421875 C9.9690625 35.32421875 8.6490625 35.32421875 7.2890625 35.32421875 C7.21429687 34.71835937 7.13953125 34.1125 7.0625 33.48828125 C5.4973047 23.5139975 1.09208258 16.05985024 -6.77734375 9.72265625 C-12.08269041 5.88565806 -17.38471655 4.5191716 -23.7109375 3.32421875 C-23.7109375 2.00421875 -23.7109375 0.68421875 -23.7109375 -0.67578125 C-15.8018104 -4.22565876 -7.81844587 -3.53691599 0 0 Z " fill="#5672FA" transform="translate(707.7109375,589.67578125)"/>
<path d="M0 0 C-0.33 0.99 -0.66 1.98 -1 3 C-2.96875 3.73828125 -2.96875 3.73828125 -5.5 4.3125 C-14.05236382 6.67050888 -21.06086192 11.58374068 -26 19 C-28.74992232 24.10959164 -30.56831104 29.39255159 -32 35 C-33.9375 34.6875 -33.9375 34.6875 -36 34 C-38.16919318 27.49242046 -38.38330459 18.67009595 -35.94140625 12.19140625 C-32.07457954 6.14490486 -26.5870338 0.83337283 -20.1875 -2.4375 C-12.97540081 -3.71022339 -6.35079523 -4.11943475 0 0 Z " fill="#5673FA" transform="translate(348,590)"/>
</svg>
